<?xml version="1.0" encoding="UTF-8"?>
<svg width="22px" height="22px" viewBox="0 0 22 22" version="1.1" xmlns="http://www.w3.org/2000/svg" xmlns:xlink="http://www.w3.org/1999/xlink">
    <!-- Generator: Sketch 52.6 (67491) - http://www.bohemiancoding.com/sketch -->
    <title>icon-gear</title>
    <desc>Created with Sketch.</desc>
    <g id="Page-1" stroke="none" stroke-width="1" fill="none" fill-rule="evenodd">
        <path d="M18.4735883,10.8998179 L21.0783242,7.33333333 L18.9544627,3.64663024 L14.5865209,4.12750455 L14.4262295,4.04735883 L12.6630237,0 L8.41530055,0 L6.65209472,4.04735883 L6.49180328,4.12750455 L2.12386157,3.64663024 L0,7.33333333 L2.60473588,10.8998179 L2.60473588,11.1001821 L3.55918492e-16,14.6666667 L2.12386157,18.3533698 L6.49180328,17.8724954 L6.65209472,17.9526412 L8.41530055,22 L12.6630237,22 L14.4262295,17.9526412 L14.5865209,17.8724954 L18.9544627,18.3533698 L21.0783242,14.6666667 L18.4735883,11.1001821 L18.4735883,10.8998179 Z M10.5391621,14.8269581 C8.41530055,14.8269581 6.69216758,13.1038251 6.69216758,10.9799636 C6.69216758,8.856102 8.41530055,7.13296903 10.5391621,7.13296903 C12.6630237,7.13296903 14.3861566,8.856102 14.3861566,10.9799636 C14.3861566,13.1038251 12.6630237,14.8269581 10.5391621,14.8269581 Z" id="icon-gear" fill="#000000" fill-rule="nonzero"></path>
    </g>
</svg>